<?xml version="1.0" standalone="no"?>
<!DOCTYPE svg PUBLIC "-//W3C//DTD SVG 20010904//EN"
 "http://www.w3.org/TR/2001/REC-SVG-20010904/DTD/svg10.dtd">
<svg version="1.0" xmlns="http://www.w3.org/2000/svg"
 width="1126.000000pt" height="1126.000000pt" viewBox="0 0 1126.000000 1126.000000"
 preserveAspectRatio="xMidYMid meet">
<metadata>
Created by potrace 1.14, written by Peter Selinger 2001-2017
</metadata>
<g transform="translate(0.000000,1126.000000) scale(0.100000,-0.100000)"
fill="#000000" stroke="none">
<path d="M5730 11185 c-1 -71 -2 -1599 -1 -1623 1 -10 24 -11 109 -5 199 15
551 9 726 -12 98 -12 141 -17 160 -21 22 -4 90 -15 121 -19 11 -2 50 -10 86
-19 37 -8 78 -17 90 -20 207 -38 585 -174 844 -303 135 -67 127 -57 -29 38
-368 222 -863 418 -1251 495 -11 2 -31 6 -45 9 -29 6 -130 24 -162 30 -35 6
-88 13 -143 20 -72 9 -97 14 -101 18 -3 2 -14 37 -25 78 -27 98 -105 386 -128
474 -38 142 -73 274 -123 455 -27 102 -52 192 -53 200 -2 8 -19 74 -39 145
l-34 130 -2 -70z"/>
<path d="M5308 9775 c-2 -1 -39 -5 -82 -9 -65 -6 -290 -41 -381 -60 -340 -71
-714 -203 -1030 -364 -816 -415 -1490 -1109 -1877 -1931 -82 -175 -225 -557
-243 -652 -2 -9 -13 -52 -24 -95 -24 -90 -57 -240 -65 -299 -4 -22 -11 -67
-16 -100 -5 -33 -12 -82 -15 -110 -3 -27 -8 -68 -10 -90 l-6 -40 -702 -199
c-386 -110 -705 -202 -709 -205 -4 -4 463 -6 1037 -6 l1045 0 1 105 c3 240 12
344 55 600 75 445 233 889 456 1277 93 161 138 230 271 409 465 629 1144 1116
1903 1367 114 38 416 117 447 117 15 0 17 14 17 144 l0 144 -34 0 c-19 0 -36
-1 -38 -3z"/>
<path d="M5991 9146 c3 -3 32 -8 65 -11 32 -3 75 -7 94 -10 19 -3 58 -8 85
-11 28 -3 59 -8 70 -10 10 -2 37 -6 60 -10 22 -3 99 -18 170 -34 713 -158
1350 -528 1860 -1081 300 -324 563 -762 720 -1197 29 -79 83 -255 89 -286 2
-12 11 -48 20 -81 19 -75 52 -243 61 -310 3 -27 8 -59 10 -70 2 -11 4 -28 4
-37 1 -17 17 -18 197 -18 l196 0 -5 53 c-6 60 -31 201 -53 302 -8 39 -17 81
-20 95 -6 31 -61 221 -79 275 -173 519 -467 995 -860 1391 -160 161 -237 227
-470 402 -33 25 -195 127 -279 177 -355 208 -836 377 -1226 431 -25 3 -53 8
-64 10 -10 2 -51 6 -90 9 -39 4 -78 9 -86 11 -23 8 -476 17 -469 10z"/>
<path d="M3647 5977 c1 -1178 2 -2149 2 -2158 2 -38 338 -346 549 -503 105
-78 353 -238 359 -232 1 1 -9 56 -22 122 -13 65 -26 141 -30 168 -3 27 -8 59
-10 70 -5 21 -11 72 -21 171 -3 28 -7 60 -9 72 -3 21 -14 130 -20 215 -29 378
-24 1021 10 1333 3 28 8 77 10 110 3 33 7 74 10 90 2 17 7 55 10 85 3 30 8 66
10 80 11 79 16 109 20 148 3 24 7 53 10 65 6 29 13 71 21 127 10 74 6 74 115
-22 35 -31 183 -161 329 -288 146 -128 283 -249 306 -269 22 -20 69 -61 104
-91 34 -30 68 -59 74 -65 6 -5 45 -39 86 -75 41 -35 91 -79 110 -96 19 -18 76
-67 125 -110 50 -44 95 -83 101 -89 6 -5 39 -35 74 -65 35 -30 68 -59 74 -65
13 -12 146 -128 190 -165 16 -14 36 -32 45 -41 9 -8 88 -78 176 -154 88 -77
162 -142 165 -145 3 -3 39 -34 80 -70 41 -36 80 -69 86 -75 6 -5 41 -37 79
-70 38 -33 94 -82 124 -109 31 -27 70 -61 86 -75 38 -32 178 -155 225 -197 19
-17 78 -69 130 -114 52 -45 109 -95 127 -111 17 -15 85 -74 150 -131 65 -56
131 -115 147 -130 17 -15 32 -25 36 -23 3 2 5 973 5 2158 l0 2156 -45 41
c-176 163 -352 313 -480 409 -41 30 -80 60 -86 66 -34 29 -286 197 -290 192
-5 -4 4 -61 41 -287 3 -14 7 -50 10 -80 4 -30 8 -62 10 -70 3 -8 7 -40 10 -70
3 -30 8 -68 10 -85 2 -16 6 -70 10 -120 3 -49 8 -99 10 -110 19 -101 28 -894
12 -1115 -14 -196 -27 -350 -32 -370 -2 -8 -6 -46 -10 -83 -3 -37 -8 -76 -9
-85 -4 -21 -17 -108 -22 -145 -4 -35 -15 -109 -18 -122 -2 -5 -8 -45 -16 -87
-7 -43 -16 -78 -19 -78 -3 0 -17 10 -31 23 -25 22 -568 498 -624 547 -16 14
-37 32 -46 40 -8 8 -85 76 -170 150 -85 74 -173 151 -195 171 -22 20 -155 136
-295 259 -140 122 -271 236 -290 254 -19 17 -69 60 -110 96 -41 36 -89 77
-105 92 -17 15 -39 35 -51 45 -12 10 -52 45 -90 79 -38 34 -235 206 -439 384
-203 178 -393 344 -421 369 -28 25 -66 60 -85 76 -92 80 -181 158 -271 238
-54 48 -102 87 -106 87 -4 0 -6 -964 -5 -2143z"/>
<path d="M9323 5546 c0 -81 -11 -299 -17 -336 -2 -14 -7 -52 -11 -85 -4 -32
-8 -67 -10 -76 -3 -17 -10 -54 -20 -124 -4 -22 -13 -67 -21 -100 -8 -33 -17
-73 -20 -90 -13 -66 -97 -333 -146 -457 -49 -127 -223 -484 -252 -517 -7 -9
-25 -38 -40 -64 -14 -26 -31 -53 -36 -60 -5 -7 -46 -63 -89 -125 -187 -264
-390 -482 -662 -707 -225 -188 -589 -404 -879 -522 -235 -96 -564 -192 -745
-218 -23 -3 -50 -7 -61 -9 -12 -2 -45 -7 -75 -11 -30 -3 -65 -8 -79 -10 -14
-2 -61 -7 -104 -10 -44 -3 -82 -8 -85 -11 -7 -7 454 2 509 10 19 2 60 7 91 11
31 3 65 7 75 9 11 2 39 7 64 10 25 4 79 14 120 22 41 8 85 16 97 19 108 20
487 137 507 156 6 5 16 9 24 9 8 0 48 16 89 35 41 19 77 35 80 35 3 0 58 26
122 59 259 130 501 292 741 496 44 38 292 285 345 345 126 141 303 390 410
575 46 81 113 214 186 370 41 89 159 440 174 517 2 11 6 27 9 36 3 9 7 28 10
42 2 14 13 68 24 120 11 52 25 136 32 185 7 50 14 97 16 105 1 8 3 18 3 21 1
4 13 10 29 13 15 4 50 13 77 21 123 36 792 227 805 230 25 5 411 116 470 134
53 17 24 18 -851 18 l-905 0 -1 -71z"/>
<path d="M1565 5240 c-3 -5 -3 -19 -1 -32 3 -13 8 -50 11 -83 3 -33 8 -67 10
-75 2 -8 6 -35 9 -60 3 -25 8 -56 11 -70 3 -14 10 -52 16 -85 25 -138 88 -376
140 -525 17 -47 32 -92 34 -100 4 -15 45 -121 67 -170 6 -14 14 -34 19 -45 4
-11 39 -85 77 -165 59 -124 100 -199 183 -339 46 -79 179 -274 250 -367 230
-304 518 -588 829 -820 97 -72 263 -185 290 -197 8 -4 27 -15 42 -25 87 -57
440 -242 462 -242 3 0 29 -11 58 -24 102 -47 358 -139 448 -162 8 -2 58 -15
110 -29 52 -15 102 -28 110 -30 35 -7 177 -37 200 -41 105 -19 171 -29 260
-38 122 -14 145 -18 152 -28 5 -10 42 -147 53 -198 2 -8 20 -78 40 -155 20
-77 38 -148 40 -157 2 -10 18 -71 35 -135 18 -65 33 -125 35 -133 5 -24 170
-668 179 -695 1 -5 3 387 3 873 0 485 -3 885 -8 887 -4 3 -31 7 -61 10 -29 4
-80 11 -113 17 -33 5 -69 11 -80 13 -147 19 -421 89 -624 160 -813 283 -1508
828 -1986 1555 -293 446 -503 984 -581 1485 -3 22 -8 47 -9 55 -2 8 -7 44 -11
80 -4 36 -9 68 -10 73 -1 4 -2 12 -3 17 -1 13 -678 14 -686 0z"/>
<path d="M8299 2416 c-147 -108 -498 -294 -719 -381 -235 -93 -534 -179 -730
-211 -14 -2 -34 -6 -45 -9 -11 -2 -42 -7 -70 -11 -27 -3 -52 -7 -55 -9 -3 -2
-41 -6 -85 -10 -44 -4 -88 -9 -98 -11 -26 -4 -261 -17 -329 -17 -65 0 -59 13
-59 -117 0 -126 1 -141 9 -137 4 3 35 8 69 11 96 10 141 17 223 32 41 8 86 17
100 19 161 24 609 158 765 229 17 8 64 28 105 46 141 61 335 162 480 251 132
80 371 250 460 328 47 40 36 39 -21 -3z"/>
</g>
</svg>
